# xmcd CD database file
#
# Track frame offsets:
#	150
#	11837
#	25645
#	38220
#	53002
#	71165
#	84567
#	98107
#	113605
#	126412
#	139882
#	154162
#
# Disc length: 2271 seconds
#
# Revision: 0
# Processed by: cddbd v1.5.1PL0 Copyright (c) Steve Scherf et al.
# Submitted via: CDex 1.51
#
DISCID=9d08dd0c
DTITLE=Klaus Brendel - Blue Steel
DYEAR=1995
DGENRE=Country
TTITLE0=Bootleg Road
TTITLE1=Blue Steel
TTITLE2=California Sun
TTITLE3=Great New Orleans
TTITLE4=Mississippi Trail
TTITLE5=Chicago Sunset
TTITLE6=Island Hoppers
TTITLE7=Moonlit Wings
TTITLE8=Lucky's Strike
TTITLE9=Surfer's Break
TTITLE10=Honeymoon Island
TTITLE11=School's Out
EXTD=YEAR: 1995
EXTT0=
EXTT1=
EXTT2=
EXTT3=
EXTT4=
EXTT5=
EXTT6=
EXTT7=
EXTT8=
EXTT9=
EXTT10=
EXTT11=
PLAYORDER=
